<svg width="1200" height="900" viewBox="0 0 1200 900" fill="none" xmlns="http://www.w3.org/2000/svg">
<rect width="1200" height="900" rx="64" fill="#05070B"/>
<circle cx="600" cy="520" r="360" fill="#2BBFDA" fill-opacity="0.13" filter="url(#b)"/>
<rect x="180" y="168" width="840" height="540" rx="58" fill="#10161D" stroke="white" stroke-opacity="0.12"/>
<path d="M455 168h290v46c0 34-28 62-62 62H517c-34 0-62-28-62-62v-46Z" fill="#020304"/>
<rect x="364" y="426" width="472" height="126" rx="63" fill="#020304" stroke="white" stroke-opacity="0.12"/>
<rect x="229" y="448" width="108" height="82" rx="41" fill="#0A0F15" stroke="white" stroke-opacity="0.13"/>
<rect x="863" y="448" width="108" height="82" rx="41" fill="#0A0F15" stroke="white" stroke-opacity="0.13"/>
<path d="M259 482h48v34h-48v-34Zm0 0 24 18 24-18" stroke="#D8F6FA" stroke-width="6" stroke-linejoin="round"/>
<path d="M917 477c-20 0-36 16-36 36v8h72v-8c0-20-16-36-36-36Z" stroke="#D8F6FA" stroke-width="6"/><path d="M875 528h84" stroke="#D8F6FA" stroke-width="6" stroke-linecap="round"/><circle cx="944" cy="478" r="9" fill="#45CBE4"/>
<rect x="422" y="462" width="78" height="54" rx="18" fill="#111820" stroke="white" stroke-opacity="0.12"/><path d="M445 493h116" stroke="#D8F6FA" stroke-opacity="0.55" stroke-width="8" stroke-linecap="round"/><path d="M588 493h128" stroke="#45CBE4" stroke-width="8" stroke-linecap="round"/><path d="M748 493h30" stroke="#D8F6FA" stroke-opacity="0.7" stroke-width="8" stroke-linecap="round"/>
<path d="M404 601h392" stroke="#45CBE4" stroke-opacity="0.68" stroke-width="4" stroke-linecap="round"/>
<defs><filter id="b" x="0" y="-80" width="1200" height="1100" filterUnits="userSpaceOnUse"><feGaussianBlur stdDeviation="95"/></filter></defs>
</svg>